<svg xmlns="http://www.w3.org/2000/svg" width="240" height="41" viewBox="0 0 240 41"><path d="M106.36 16.95c0-1.89-.26-3.38-.74-4.49a3.68 3.68 0 0 0-2.56-2.02c-1.16-.3-2.52-.44-4.11-.44H90v20.5h3.91v-6.63h6c1.05 0 2.05-.12 3.01-.39 1.08-.34 1.8-.73 2.17-1.23.85-.98 1.27-2.75 1.27-5.3zm-3.88.17c0 .32-.01.69-.07 1.07l-.09.85a1.7 1.7 0 0 1-.68.93c-.2.22-.52.35-.96.45-.45.07-1.04.11-1.77.11h-5v-7.16h5.1c1.62 0 2.63.32 3.03 1.04.29.53.44 1.44.44 2.71zm23.86 10.03h-9.62V10h-3.93v20.5h13.55zM142.75 10h-5.77l-2.14 6.29-4.69 14.21h4.07l1.31-3.84h8.89l1.3 3.84h4.02zm-6.36 13.65l3.56-10.68 3.54 10.68zM174.25 10h-3.97l.35 17.15h-.13L161.7 10h-6.52v20.5h3.93l-.1-8.64-.21-8.49h.16l8.7 17.13h6.59zm21.19 17.15h-10.22v-5.47h9.63v-3.16h-9.63v-5.15h10.15V10H181.3v20.5h14.14zM216.53 10h-15.96v3.37h5.98V30.5h3.93V13.37h6.05zm16.34 0h-5.76l-2.13 6.29-4.7 14.21h4.07l1.29-3.84h8.88l1.33 3.84h3.98zm-6.34 13.65l3.53-10.68 3.54 10.68z"/><path fill="#007dc3" d="M52.8 28.55h-9.38l-1.39 6.53h11.42l-1.22 5.71H11.45l1.21-5.71h11.42l.61-2.86H6.75l1.21-5.71h17.95l.6-2.85H0l1.21-5.72h26.52L31.54 0H58.9c8.96.01 17.05 4.09 14.88 14.27-2.17 10.2-12.01 14.28-20.98 14.28zm-3.87-10.61c3.27 0 6.29-.81 6.9-3.67.61-2.85-2.07-3.66-5.34-3.66h-3.26l-1.56 7.33z"/></svg>