<svg id="logo" xmlns="http://www.w3.org/2000/svg" xmlns:xlink="http://www.w3.org/1999/xlink" width="366.969" height="30.313" viewBox="0 0 366.969 30.313">
  <defs>
    <style>
      .cls-1 {
        fill: #fff;
        filter: url(#filter);
      }

      .cls-1, .cls-2 {
        fill-rule: evenodd;
      }
    </style>
    <filter id="filter" x="239.969" y="16.063" width="162.344" height="25" filterUnits="userSpaceOnUse">
      <feFlood result="flood" flood-color="#e9242d"/>
      <feComposite result="composite" operator="in" in2="SourceGraphic"/>
      <feBlend result="blend" in2="SourceGraphic"/>
    </filter>
  </defs>
  <path id="Shape_1_copy" data-name="Shape 1 copy" class="cls-1" d="M261.954,16.409a2.675,2.675,0,0,1,2.662,2.662,2.663,2.663,0,0,1-5.323,0A2.675,2.675,0,0,1,261.954,16.409Zm-11.5,14.68,1.373,0.172a31.6,31.6,0,0,1-2.318,2.661,29.079,29.079,0,0,1-9.272,7.04h4.98c5.408-2.147,11.675-9.615,12.1-10.131,0.43-.6,5.066-6.181,2.147-8.756-3.091-2.747-3.52-5.237-3.52-5.237H239.977L251.223,17.7a8.26,8.26,0,0,0,1.374,2.489H241.608l11.761,0.945a9.179,9.179,0,0,0,1.288,1.288,2.207,2.207,0,0,1,.687,1.117H243.583l11.847,0.943a5.041,5.041,0,0,1-.429,1.89h-9.1l8.671,0.944a6.33,6.33,0,0,1-.6,1.031h-6.438l6.095,0.6a3.078,3.078,0,0,0-.6.859h-3.949l3.691,0.344c-0.257.343-.515,0.6-0.772,0.943h-1.545Zm3.176,4.122a24.369,24.369,0,0,0,7.812,5.752h5.152a28.784,28.784,0,0,1-10.474-8.242,0.324,0.324,0,0,0-.172-0.172,13.2,13.2,0,0,1-2.4,2.575A0.084,0.084,0,0,1,253.627,35.21ZM302.9,23.535c0-3.349,1.288-5.581,3.864-6.611a12.929,12.929,0,0,1,5.15-.773h6.267a2.061,2.061,0,0,1,1.288.515,2.11,2.11,0,0,1,.858,1.888,2.208,2.208,0,0,1-.858,1.889,2.551,2.551,0,0,1-1.288.43h-4.378a12.631,12.631,0,0,0-3.949.43,2.211,2.211,0,0,0-1.288,2.317,2.269,2.269,0,0,0,1.717,2.4,7.8,7.8,0,0,0,2.318.171,10.584,10.584,0,0,1,4.55.773c2.146,1.116,3.176,3.262,3.176,6.525,0,4.894-3,7.383-9.014,7.383h-6.267a2.562,2.562,0,0,1-1.2-.429,2.522,2.522,0,0,1-.085-3.863,2.55,2.55,0,0,1,1.287-.429h4.379a12.775,12.775,0,0,0,3.949-.343,2.214,2.214,0,0,0,1.288-2.318c0-1.717-1.117-2.662-3.52-2.662C305.652,30.831,302.9,28.428,302.9,23.535ZM327.63,37.528a3.264,3.264,0,0,1-1.2,2.833,2.722,2.722,0,0,1-1.716.687,2.919,2.919,0,0,1-1.717-.687,3.5,3.5,0,0,1-1.2-2.833V23.449a2.418,2.418,0,0,1,.085-0.515,6.941,6.941,0,0,1,2.319-5.409,4.815,4.815,0,0,1,3.348-1.373h7.3a5.451,5.451,0,0,1,5.237,2.918,6.113,6.113,0,0,1,.944,3.434v1.975a7.5,7.5,0,0,1-2.232,5.752,5.175,5.175,0,0,1-3.434,1.546h-3.949a2.063,2.063,0,0,1-1.288-.516,2.11,2.11,0,0,1-.858-1.888,2.21,2.21,0,0,1,.858-1.889,2.556,2.556,0,0,1,1.288-.429h2.317a1.787,1.787,0,0,0,1.031-.429,2.24,2.24,0,0,0,.687-1.889V22.161c0-1.031-.515-1.546-1.718-1.546h-4.291q-1.8,0-1.8,1.546V37.528Zm27.986,3.519h-3.948V36.326h2.146a1.782,1.782,0,0,0,1.03-.429,2.163,2.163,0,0,0,.687-1.8V22.762a1.992,1.992,0,0,0-.687-1.718,1.361,1.361,0,0,0-1.03-.429h-2.146v-4.55h3.948a5.2,5.2,0,0,1,3.52,1.545,7.982,7.982,0,0,1,2.147,5.838V33.665a7.981,7.981,0,0,1-2.147,5.838,5.2,5.2,0,0,1-3.52,1.545h0Zm-3.948,0h0V36.326h-2.146a1.585,1.585,0,0,1-1.031-.429,2.163,2.163,0,0,1-.687-1.8V22.762a1.992,1.992,0,0,1,.687-1.718,1.253,1.253,0,0,1,1.031-.429h2.146v-4.55h-4.035a5.009,5.009,0,0,0-3.434,1.545c-1.546,1.288-2.232,3.262-2.232,5.838V33.665c0,2.575.686,4.551,2.232,5.838a5.012,5.012,0,0,0,3.434,1.545h4.035Zm18.714-11.675a2.056,2.056,0,0,1,.859-1.8,1.857,1.857,0,0,1,1.2-.515h2.4a1.785,1.785,0,0,0,1.03-.429,2.164,2.164,0,0,0,.687-1.8V22.247a1.481,1.481,0,0,0-1.717-1.631h-4.378a1.48,1.48,0,0,0-1.717,1.631V37.614a3.325,3.325,0,0,1-1.2,2.747,2.49,2.49,0,0,1-3.434,0,3.325,3.325,0,0,1-1.2-2.747V22.934a7.286,7.286,0,0,1,2.4-5.409,4.815,4.815,0,0,1,3.348-1.373h7.3A5.45,5.45,0,0,1,381.2,19.07a6.106,6.106,0,0,1,.945,3.434v1.975a8.043,8.043,0,0,1-1.632,5.152,5.735,5.735,0,0,1-1.717,1.459l2.576,3.606a4.172,4.172,0,0,1,.773,2.576,3.685,3.685,0,0,1-1.2,2.918,2.86,2.86,0,0,1-1.888.858,2.06,2.06,0,0,1-1.631-.944l-6.439-9.015A2.474,2.474,0,0,1,370.382,29.373ZM389.7,37.528a3.365,3.365,0,0,0,1.2,2.833,2.751,2.751,0,0,0,3.434,0,3.627,3.627,0,0,0,1.2-2.833l-0.086-16.913h4.122a4.631,4.631,0,0,0,1.887-.257,2.107,2.107,0,0,0,.859-1.889,4.733,4.733,0,0,0-.086-0.773,2.56,2.56,0,0,0-2.66-1.631H385.579c-1.8,0-2.748.772-2.748,2.4a1.981,1.981,0,0,0,.945,1.889,4.432,4.432,0,0,0,1.8.257h4.12V37.528ZM289.427,40.876a3.191,3.191,0,0,1-1.889-.686,9.387,9.387,0,0,1-1.8-2.318L279.21,26.453v10.9a3.366,3.366,0,0,1-1.2,2.833,3.031,3.031,0,0,1-4.807-2.833V19.586a3.1,3.1,0,0,1,1.2-2.747,2.709,2.709,0,0,1,3.6,0,2.983,2.983,0,0,1,.945,1.116c2.575,4.207,4.894,8.757,7.383,13.134V19.671a3.386,3.386,0,0,1,1.2-2.833,3.188,3.188,0,0,1,1.889-.687,3.152,3.152,0,0,1,1.8.687,3.386,3.386,0,0,1,1.2,2.833V37.357a3.625,3.625,0,0,1-1.2,2.833A3.155,3.155,0,0,1,289.427,40.876Z" transform="translate(-239.969 -12.531)"/>
  <path class="cls-2" d="M440.228,23.05V39.142H432.9V19.274A32.089,32.089,0,0,1,442.48,17.8q5.074,0,7.257,1.162a3.976,3.976,0,0,1,2.2,3.8V39.142h-7.146V23.05a8.835,8.835,0,0,0-.185-2.257,2.087,2.087,0,0,0-2.215-1.425,9.573,9.573,0,0,0-2.16.212V23.05Zm40.284,1.06v1.766h4.051v1.933h-4.051V37.4q0,3.093-2.094,4.268t-7.406,1.178l-0.083-1.508a2.382,2.382,0,0,0,2.308-1.537,12.764,12.764,0,0,0,.111-2.341V22.507q0-5,8.851-4.995c0.195,0,1.585.038,4.152,0.112v1.619a15.661,15.661,0,0,0-2.391-.211q-0.625,0-1.168.016a1.888,1.888,0,0,0-1.983,1.341c-0.037.134-.1,0.81-0.186,2.035Zm19.964-.659V22.781a9.109,9.109,0,0,0-.167-2.223,2.122,2.122,0,0,0-2.113-1.52c-0.333-.022-1.038-0.039-2.122-0.039l-1.928.117v-1.5c2.123-.055,3.652-0.083,4.6-0.083,3.124,0,5.385.4,6.8,1.184a4.011,4.011,0,0,1,2.122,3.777V38.922h-9.342q-9.69,0-9.7-5.744V28.351q0-4.977,9.018-4.977c1.418,0,2.355.027,2.827,0.078h0Zm0,1.7-2.122-.067a2.116,2.116,0,0,0-2.28,1.246,6.49,6.49,0,0,0-.223,2.112v4.386c0,1.821.214,3,.631,3.537a2.3,2.3,0,0,0,1.872.62h2.122V25.156Zm17.184-2.6a2.217,2.217,0,0,0,1.306,1.977c0.084,0.056.843,0.363,2.271,0.917a41,41,0,0,1,5.644,2.537q2.739,1.683,2.744,3.749,0,4.156-1.279,5.464-1.836,1.886-8.221,1.883-4.895,0-6.924-.983a4.021,4.021,0,0,1-2.307-3.962V30.753h6.951q0,5.516.547,6.04a2.408,2.408,0,0,0,1.733.525,1.974,1.974,0,0,0,2.169-1.324,11.36,11.36,0,0,0,.111-2.146V30.966c0-.53-1.2-1.341-3.615-2.419-1.678-.687-3.355-1.38-5.014-2.079-1.817-.809-2.762-1.843-2.855-3.111-0.019-.252-0.027-0.6-0.027-1.062a3.825,3.825,0,0,1,2.335-3.749,16.878,16.878,0,0,1,6.6-.95q5.561,0,7.415,1.442,1.57,1.224,1.575,4.682h-6.766V22.541q0-3.26-2.224-3.257a1.885,1.885,0,0,0-2.085,1.246A12.635,12.635,0,0,0,517.66,22.558Zm21.984,16.347H532.48V12.517l7.09,0.3V17.6c1.844-.056,2.9-0.083,3.179-0.083q8.689,0,8.684,4.977V38.905h-7.22V22.781c0-1.961-.417-3.084-1.26-3.368a8.421,8.421,0,0,0-2.225-.179l-1.158.061Zm22.141-21.376V38.905H554.64V17.529h7.145Zm15.748,5.039a8.588,8.588,0,0,0-.139-2.045,2.42,2.42,0,0,0-4.264.129,8.465,8.465,0,0,0-.166,2.145V33.848a9.508,9.508,0,0,0,.139,2.146,2.459,2.459,0,0,0,4.291.128,8.586,8.586,0,0,0,.139-2.045V22.568h0ZM584.7,34.123a3.981,3.981,0,0,1-2.141,3.8c-1.437.771-3.865,1.157-7.313,1.157-3.4,0-5.829-.391-7.3-1.168a3.985,3.985,0,0,1-2.2-3.794V22.507a3.985,3.985,0,0,1,2.2-3.794c1.474-.776,3.9-1.167,7.3-1.167s5.83,0.385,7.285,1.156a3.971,3.971,0,0,1,2.169,3.805V34.123Zm10.538-11.309V38.905H587.9V19.038a32.09,32.09,0,0,1,9.583-1.476q5.075,0,7.258,1.163a3.976,3.976,0,0,1,2.2,3.8V38.905h-7.146V22.814a8.837,8.837,0,0,0-.185-2.257,2.087,2.087,0,0,0-2.215-1.425,9.617,9.617,0,0,0-2.16.212v3.47Z" transform="translate(-239.969 -12.531)"/>
</svg>
