<?xml version="1.0" encoding="UTF-8" standalone="no"?>
<svg
   xmlns:ooo="http://xml.openoffice.org/svg/export"
   xmlns:dc="http://purl.org/dc/elements/1.1/"
   xmlns:cc="http://creativecommons.org/ns#"
   xmlns:rdf="http://www.w3.org/1999/02/22-rdf-syntax-ns#"
   xmlns:svg="http://www.w3.org/2000/svg"
   xmlns="http://www.w3.org/2000/svg"
   style="fill-rule:evenodd;stroke-width:28.22200012;stroke-linejoin:round"
   id="svg3987"
   xml:space="preserve"
   preserveAspectRatio="xMidYMid"
   viewBox="0 0 2000 1070"
   height="10.7mm"
   width="20mm"
   version="1.2"><metadata
   id="metadata3991"><rdf:RDF><cc:Work
       rdf:about=""><dc:format>image/svg+xml</dc:format><dc:type
         rdf:resource="http://purl.org/dc/dcmitype/StillImage" /><dc:title></dc:title></cc:Work></rdf:RDF></metadata>
 <defs
   id="defs3927"
   class="ClipPathGroup">
  <clipPath
   clipPathUnits="userSpaceOnUse"
   id="presentation_clip_path">
   <rect
   id="rect3921"
   height="1070"
   width="5900"
   y="0"
   x="0" />
  </clipPath>
  <clipPath
   clipPathUnits="userSpaceOnUse"
   id="presentation_clip_path_shrink">
   <rect
   id="rect3924"
   height="1068"
   width="5889"
   y="1"
   x="5" />
  </clipPath>
 </defs>
 <defs
   id="defs3931"
   class="TextShapeIndex">
  <g
   id="g3929"
   ooo:id-list="id3"
   ooo:slide="id1" />
 </defs>
 <defs
   id="defs3963"
   class="EmbeddedBulletChars">
  <g
   transform="matrix(4.8828125e-4,0,0,-4.8828125e-4,0,0)"
   id="bullet-char-template(57356)">
   <path
   id="path3933"
   d="M 580,1141 1163,571 580,0 -4,571 Z" />
  </g>
  <g
   transform="matrix(4.8828125e-4,0,0,-4.8828125e-4,0,0)"
   id="bullet-char-template(57354)">
   <path
   id="path3936"
   d="M 8,1128 H 1137 V 0 H 8 Z" />
  </g>
  <g
   transform="matrix(4.8828125e-4,0,0,-4.8828125e-4,0,0)"
   id="bullet-char-template(10146)">
   <path
   id="path3939"
   d="M 174,0 602,739 174,1481 1456,739 Z M 1358,739 309,1346 659,739 Z" />
  </g>
  <g
   transform="matrix(4.8828125e-4,0,0,-4.8828125e-4,0,0)"
   id="bullet-char-template(10132)">
   <path
   id="path3942"
   d="M 2015,739 1276,0 H 717 l 543,543 H 174 v 393 h 1086 l -543,545 h 557 z" />
  </g>
  <g
   transform="matrix(4.8828125e-4,0,0,-4.8828125e-4,0,0)"
   id="bullet-char-template(10007)">
   <path
   id="path3945"
   d="m 0,-2 c -7,16 -16,29 -25,39 l 381,530 c -94,256 -141,385 -141,387 0,25 13,38 40,38 9,0 21,-2 34,-5 21,4 42,12 65,25 l 27,-13 111,-251 280,301 64,-25 24,25 c 21,-10 41,-24 62,-43 C 886,937 835,863 770,784 769,783 710,716 594,584 L 774,223 c 0,-27 -21,-55 -63,-84 l 16,-20 C 717,90 699,76 672,76 641,76 570,178 457,381 L 164,-76 c -22,-34 -53,-51 -92,-51 -42,0 -63,17 -64,51 -7,9 -10,24 -10,44 0,9 1,19 2,30 z" />
  </g>
  <g
   transform="matrix(4.8828125e-4,0,0,-4.8828125e-4,0,0)"
   id="bullet-char-template(10004)">
   <path
   id="path3948"
   d="M 285,-33 C 182,-33 111,30 74,156 52,228 41,333 41,471 c 0,78 14,145 41,201 34,71 87,106 158,106 53,0 88,-31 106,-94 l 23,-176 c 8,-64 28,-97 59,-98 l 735,706 c 11,11 33,17 66,17 42,0 63,-15 63,-46 V 965 c 0,-36 -10,-64 -30,-84 L 442,47 C 390,-6 338,-33 285,-33 Z" />
  </g>
  <g
   transform="matrix(4.8828125e-4,0,0,-4.8828125e-4,0,0)"
   id="bullet-char-template(9679)">
   <path
   id="path3951"
   d="M 813,0 C 632,0 489,54 383,161 276,268 223,411 223,592 c 0,181 53,324 160,431 106,107 249,161 430,161 179,0 323,-54 432,-161 108,-107 162,-251 162,-431 0,-180 -54,-324 -162,-431 C 1136,54 992,0 813,0 Z" />
  </g>
  <g
   transform="matrix(4.8828125e-4,0,0,-4.8828125e-4,0,0)"
   id="bullet-char-template(8226)">
   <path
   id="path3954"
   d="m 346,457 c -73,0 -137,26 -191,78 -54,51 -81,114 -81,188 0,73 27,136 81,188 54,52 118,78 191,78 73,0 134,-26 185,-79 51,-51 77,-114 77,-187 0,-75 -25,-137 -76,-188 -50,-52 -112,-78 -186,-78 z" />
  </g>
  <g
   transform="matrix(4.8828125e-4,0,0,-4.8828125e-4,0,0)"
   id="bullet-char-template(8211)">
   <path
   id="path3957"
   d="M -4,459 H 1135 V 606 H -4 Z" />
  </g>
  <g
   transform="matrix(4.8828125e-4,0,0,-4.8828125e-4,0,0)"
   id="bullet-char-template(61548)">
   <path
   id="path3960"
   d="m 173,740 c 0,163 58,303 173,419 116,115 255,173 419,173 163,0 302,-58 418,-173 116,-116 174,-256 174,-419 0,-163 -58,-303 -174,-418 C 1067,206 928,148 765,148 601,148 462,206 346,322 231,437 173,577 173,740 Z" />
  </g>
 </defs>
 <defs
   id="defs3965"
   class="TextEmbeddedBitmaps" />
 <g
   id="g3970">
  <g
   class="Master_Slide"
   id="id2">
   <g
   class="Background"
   id="bg-id2" />
   <g
   class="BackgroundObjects"
   id="bo-id2" />
  </g>
 </g>
 <g
   id="g3985"
   class="SlideGroup">
  <g
   id="g3983">
   <g
   id="container-id1">
    <g
   clip-path="url(#presentation_clip_path)"
   class="Slide"
   id="id1">
     <g
   id="g3979"
   class="Page">
      <g
   id="g3977"
   class="com.sun.star.drawing.ClosedBezierShape">
       <g
   id="id3">
        <rect
   style="fill:none;stroke:none"
   id="rect3972"
   height="884"
   width="5729"
   y="124"
   x="0"
   class="BoundingBox" />
        <path
   style="fill:#f20000;stroke:none"
   id="path3974"
   d="m 775,137 c 18,0 32,4 47,12 15,9 26,20 35,35 8,15 12,29 12,47 0,16 -4,30 -12,44 -9,15 -20,25 -35,34 -15,9 -29,13 -47,13 -17,0 -32,-4 -47,-13 -15,-9 -25,-19 -34,-34 -8,-14 -12,-28 -12,-44 0,-18 4,-32 12,-47 9,-15 20,-26 35,-35 15,-8 29,-12 46,-12 z m -405,518 48,6 c -27,35 -51,63 -82,94 v 0 C 258,844 180,908 78,968 54,981 34,992 9,1004 H 185 C 376,928 597,664 612,646 627,625 791,428 688,337 579,240 563,152 563,152 H 0 l 397,30 c 6,19 13,34 23,51 8,14 15,25 25,37 H 58 l 415,34 c 14,17 27,31 45,45 7,6 12,12 16,20 4,6 6,12 8,19 H 127 l 418,34 c 0,24 -5,44 -15,67 H 209 l 306,33 c -3,6 -6,12 -9,18 -4,7 -8,12 -12,18 H 267 l 215,21 c -7,7 -12,14 -17,23 -2,2 -3,5 -4,8 H 321 l 130,12 c -9,12 -18,21 -27,33 z m 112,146 c 63,70 126,120 207,167 24,14 44,24 68,36 H 939 C 910,990 886,978 858,961 741,894 653,818 570,713 c -1,-1 -1,-1 -1,-2 -1,-1 -2,-3 -4,-4 -1,0 -1,0 -1,0 -26,35 -51,63 -85,91 h 1 c 1,0 1,1 1,1 1,1 1,1 1,2 z M 2220,388 c 0,-118 46,-197 137,-233 v 0 c 52,-20 100,-28 157,-28 8,0 16,0 24,1 h 221 c 13,0 23,3 34,9 4,3 8,5 12,9 v 0 c 9,6 15,13 20,23 7,12 10,23 10,37 0,2 0,4 0,6 0,2 0,4 0,5 0,15 -3,27 -10,39 -6,10 -12,17 -20,23 -2,1 -4,2 -5,3 -13,8 -26,12 -41,12 h -154 c -8,0 -14,0 -22,0 -42,0 -77,4 -117,15 -3,2 -5,3 -8,4 -12,7 -21,16 -28,29 -7,12 -11,24 -11,39 0,3 1,7 1,10 0,3 0,5 0,7 0,15 3,28 11,40 7,13 16,22 29,30 7,4 13,6 21,8 21,5 39,7 61,7 7,0 13,0 20,-1 7,0 13,0 20,0 51,0 94,8 141,27 76,40 112,116 112,231 0,173 -106,261 -318,261 h -221 c -14,-2 -25,-5 -37,-12 -2,-1 -4,-2 -5,-4 -10,-7 -16,-14 -22,-24 -8,-15 -12,-29 -12,-45 0,-16 4,-30 12,-45 5,-8 11,-15 19,-22 1,-1 3,-2 5,-3 13,-8 25,-11 40,-12 h 154 c 11,1 21,1 32,1 38,0 71,-4 108,-13 2,-1 4,-2 7,-4 12,-7 21,-16 28,-28 8,-13 11,-25 11,-40 0,-3 0,-6 -1,-10 0,-61 -39,-94 -124,-94 -194,0 -291,-85 -291,-258 z m 873,495 c 0,3 0,6 0,10 0,21 -5,39 -15,58 -8,12 -16,22 -28,32 -5,4 -9,8 -15,11 -15,8 -29,12 -45,13 -17,-1 -31,-5 -46,-14 -5,-3 -10,-6 -15,-10 -11,-10 -18,-19 -26,-32 -11,-20 -16,-39 -16,-62 0,-2 0,-4 0,-6 V 385 c 0,-6 1,-12 3,-18 0,-3 0,-5 0,-8 0,-45 10,-83 33,-123 13,-23 28,-42 49,-60 10,-10 21,-18 34,-26 26,-15 53,-22 84,-22 h 257 c 5,-1 10,-1 15,-1 35,0 65,8 96,26 30,18 53,40 70,70 2,3 3,5 4,8 2,2 3,4 5,7 20,34 29,68 29,108 0,2 0,4 0,6 v 70 c 0,5 0,9 0,14 0,49 -11,90 -36,132 -12,22 -25,39 -43,57 -12,12 -24,21 -39,30 -27,15 -52,23 -82,24 h -140 c -12,0 -23,-3 -33,-9 -5,-3 -8,-5 -12,-9 -9,-6 -15,-13 -21,-23 -7,-12 -10,-23 -10,-37 0,-2 0,-4 1,-6 -1,-2 -1,-4 -1,-5 0,-15 4,-27 11,-39 5,-10 11,-17 20,-23 2,-1 3,-2 5,-3 13,-8 25,-12 40,-12 h 82 c 10,-1 18,-4 27,-9 3,-2 6,-4 9,-7 6,-5 11,-10 15,-17 7,-13 10,-25 10,-40 0,-3 0,-6 0,-9 v -91 c 0,-37 -19,-55 -61,-55 h -151 c -43,0 -64,18 -64,55 z m 987,124 H 3941 V 840 h 76 c 9,-1 18,-3 26,-8 4,-2 7,-4 10,-7 6,-6 10,-11 14,-18 7,-12 11,-24 11,-38 0,-3 -1,-5 -1,-8 V 361 c 0,-3 1,-5 1,-7 0,-13 -3,-24 -10,-35 -4,-8 -9,-13 -15,-19 -3,-3 -7,-6 -11,-8 -8,-5 -15,-7 -24,-7 -1,0 -1,0 -1,0 h -76 V 125 h 139 v 0 c 32,1 58,8 86,24 15,9 26,18 38,30 16,17 27,32 39,52 26,45 37,89 37,141 0,5 0,9 0,13 v 361 c 0,5 0,9 0,14 0,51 -11,96 -37,141 -12,19 -23,35 -39,51 -12,13 -23,22 -38,30 -28,16 -54,24 -86,25 z m -139,0 V 840 h -76 c -9,0 -18,-3 -26,-7 -4,-3 -7,-5 -10,-8 -6,-6 -11,-11 -15,-18 -7,-12 -10,-24 -10,-38 0,-3 0,-5 1,-8 V 361 c -1,-3 -1,-5 -1,-7 0,-13 3,-24 10,-35 4,-8 8,-13 15,-19 3,-4 7,-6 11,-9 7,-4 14,-6 22,-6 1,0 2,0 3,0 h 76 V 125 h -142 c -31,1 -56,8 -82,23 -16,9 -27,18 -40,31 -54,46 -78,115 -78,206 v 361 c 0,91 24,161 78,206 13,13 24,22 40,31 26,15 51,23 82,24 z m 660,-413 c 0,-1 0,-2 0,-4 0,-13 3,-25 10,-36 5,-10 12,-17 21,-23 4,-4 7,-7 12,-10 10,-5 19,-8 30,-8 h 85 c 9,-1 18,-4 26,-9 4,-2 7,-4 10,-6 6,-6 10,-11 14,-18 7,-13 10,-25 10,-39 0,-2 0,-4 0,-7 v -91 c 0,-2 0,-4 0,-6 0,-10 -2,-18 -7,-26 -4,-9 -10,-15 -19,-19 -8,-5 -16,-7 -26,-7 -3,0 -5,0 -8,0 h -155 c -3,0 -6,-1 -9,-1 -9,0 -17,3 -26,8 -8,4 -14,10 -19,19 -5,8 -7,16 -7,26 0,2 0,4 0,6 v 543 c 1,2 1,4 1,6 0,22 -5,40 -16,59 -7,13 -16,22 -27,32 -5,5 -10,8 -17,12 -14,8 -27,12 -43,12 -17,0 -30,-4 -44,-12 -7,-4 -12,-7 -17,-12 -11,-10 -19,-19 -27,-32 -11,-19 -16,-37 -16,-59 0,-2 1,-4 1,-6 v -519 0 c 0,-47 10,-88 34,-129 14,-24 29,-43 50,-62 11,-10 21,-18 34,-26 27,-15 53,-22 84,-22 h 258 c 5,-1 9,-1 14,-1 36,0 66,8 96,26 31,18 53,40 71,70 1,3 3,5 4,8 2,2 3,4 4,7 20,35 29,68 29,108 0,2 0,4 0,6 v 70 c 0,3 0,6 0,10 0,52 -11,97 -38,142 -6,11 -12,20 -19,30 -17,21 -35,36 -58,49 -1,1 -2,2 -3,2 l 91,128 c 3,4 5,7 8,11 13,24 19,47 19,74 0,2 0,4 0,5 0,3 0,5 0,7 0,24 -5,45 -17,65 -7,13 -15,22 -25,32 -7,7 -13,12 -22,16 -14,9 -28,13 -45,14 -12,-1 -22,-4 -32,-10 -11,-6 -19,-13 -25,-23 L 4623,655 c -4,-4 -7,-8 -10,-14 -8,-13 -12,-27 -12,-43 0,-1 0,-2 0,-3 z m 682,289 c 0,3 -1,5 -1,8 0,22 5,41 16,60 8,12 16,22 27,32 4,3 8,5 12,8 16,9 31,13 49,13 18,0 33,-4 48,-13 5,-3 8,-5 12,-8 11,-10 19,-19 26,-32 11,-20 17,-40 17,-64 0,-1 0,-3 0,-4 l -3,-598 h 145 c 4,0 8,1 12,1 19,0 36,-3 55,-10 8,-6 15,-13 20,-23 7,-12 10,-23 10,-37 0,-2 0,-4 0,-7 0,-9 -1,-17 -3,-27 -2,-5 -4,-8 -6,-13 -9,-14 -19,-25 -33,-33 -15,-8 -29,-12 -45,-12 -4,0 -7,0 -10,1 h -494 c -63,0 -97,27 -97,84 0,3 0,5 0,7 0,13 3,24 9,35 7,11 14,19 25,25 18,7 34,9 53,9 4,0 7,0 10,0 h 146 z m -3538,118 c -20,-1 -36,-5 -53,-15 -5,-3 -9,-6 -14,-9 -25,-24 -43,-47 -60,-76 -1,-3 -2,-4 -3,-6 L 1384,491 v 385 c 1,3 1,6 1,9 0,22 -5,41 -16,60 -8,12 -16,22 -27,31 -3,3 -6,5 -10,7 -17,10 -34,14 -54,14 -19,0 -36,-4 -53,-14 -17,-10 -29,-22 -39,-39 -10,-17 -15,-34 -15,-54 0,-5 1,-9 1,-14 V 249 c 0,-4 0,-7 0,-10 0,-20 4,-38 15,-55 7,-13 16,-23 28,-32 5,-5 9,-8 15,-12 16,-8 31,-12 48,-12 18,0 33,4 48,12 6,4 11,7 16,12 13,9 22,19 30,33 1,2 2,4 3,6 91,149 173,310 261,464 V 252 c -1,-3 -1,-6 -1,-9 0,-22 5,-40 16,-59 8,-13 16,-23 27,-32 4,-4 8,-7 13,-9 17,-10 34,-15 54,-15 v 0 c 18,1 33,5 49,14 5,3 9,6 14,10 11,9 19,19 27,32 11,19 16,37 16,59 0,3 0,6 -1,9 v 624 c 0,2 0,4 0,5 0,24 -5,44 -17,64 -7,13 -14,22 -25,32 -5,3 -9,6 -14,9 -16,9 -31,14 -49,15 z" />
       </g>
      </g>
     </g>
    </g>
   </g>
  </g>
 </g>
</svg>